<svg width="27" height="27" viewBox="0 0 27 27" fill="none" xmlns="http://www.w3.org/2000/svg">
<path d="M12.3511 8.05964C12.6986 7.88588 13.2072 7.79907 13.8773 7.79907C14.5722 7.79907 15.0933 7.84866 15.4407 7.94797L14.8823 12.7871L18.977 10.8887C19.1756 11.1369 19.3617 11.596 19.5354 12.266C19.734 12.936 19.8332 13.4695 19.8332 13.8666L15.2546 14.3878L18.7164 17.6635C18.5428 17.9862 18.1953 18.3584 17.6742 18.7803C17.153 19.1774 16.6816 19.4379 16.2596 19.562L13.9889 15.4673L11.9416 19.562C11.5694 19.4875 11.1103 19.2642 10.5643 18.8919C10.0184 18.5197 9.63374 18.1598 9.41039 17.8124L12.6861 14.425L8.07031 13.8294C8.07031 13.3827 8.15717 12.8367 8.33088 12.1915C8.52941 11.5464 8.74035 11.112 8.9637 10.8887L13.1328 12.7499L12.3511 8.05964Z" fill="#CA2D37"/>
<path d="M18.954 1H8.04604C4.15462 1 1 4.15462 1 8.04604V18.954C1 22.8454 4.15462 26 8.04604 26H18.954C22.8454 26 26 22.8454 26 18.954V8.04604C26 4.15462 22.8454 1 18.954 1Z" stroke="#CA2D37" stroke-width="2"/>
</svg>
