<svg width="26" height="26" viewBox="0 0 26 26" fill="none" xmlns="http://www.w3.org/2000/svg">
<rect x="2.5" y="17.5" width="8" height="4" fill="#CCFF00" stroke="#738F00"/>
<g clip-path="url(#clip0_100_553)">
<path d="M22.2984 4.70163C21.5295 3.93279 20.283 3.93279 19.5141 4.70163L18.6463 5.5695L21.4305 8.35373L22.2984 7.48587C23.0672 6.71702 23.0672 5.47048 22.2984 4.70163Z" fill="#CCFF00"/>
<path d="M20.635 9.14923L17.8508 6.365L8.73766 15.4781C8.27507 15.9407 7.93502 16.5113 7.74826 17.1383L7.14842 19.1519C7.08946 19.3499 7.14372 19.5642 7.28977 19.7102C7.43581 19.8563 7.65015 19.9106 7.8481 19.8516L9.86177 19.2517C10.4887 19.065 11.0593 18.7249 11.5219 18.2623L20.635 9.14923Z" fill="#CCFF00"/>
<path d="M22.2984 4.70163C21.5295 3.93279 20.283 3.93279 19.5141 4.70163L18.6463 5.5695L21.4305 8.35373L22.2984 7.48587C23.0672 6.71702 23.0672 5.47048 22.2984 4.70163Z" stroke="#738F00" stroke-linecap="round" stroke-linejoin="round"/>
<path d="M20.635 9.14923L17.8508 6.365L8.73766 15.4781C8.27507 15.9407 7.93502 16.5113 7.74826 17.1383L7.14842 19.1519C7.08946 19.3499 7.14372 19.5642 7.28977 19.7102C7.43581 19.8563 7.65015 19.9106 7.8481 19.8516L9.86177 19.2517C10.4887 19.065 11.0593 18.7249 11.5219 18.2623L20.635 9.14923Z" stroke="#738F00" stroke-linecap="round" stroke-linejoin="round"/>
</g>
<defs>
<clipPath id="clip0_100_553">
<rect width="18" height="18" fill="white" transform="translate(6 3)"/>
</clipPath>
</defs>
</svg>
